<svg width="193" height="52" viewBox="0 0 193 52" fill="none" xmlns="http://www.w3.org/2000/svg">
<circle cx="26" cy="26" r="26" fill="#5B2FE2"/>
<path d="M16 23.4444L21.7647 31.5965C23.0018 33.3459 25.7512 32.1886 25.3649 30.0811L23.7813 21.4435C23.5022 19.9212 24.9838 18.6723 26.437 19.2051L38 23.4444" stroke="white" stroke-width="3.5" stroke-linecap="round"/>
<path d="M74.704 34L70.456 21.352L73.48 21.328L76.312 30.376L75.76 30.304L78.856 23.272H80.608L83.776 30.328L83.152 30.376L86.008 21.352H89.032L84.736 34H82.672L79.408 26.392L79.864 26.44L76.792 34H74.704ZM90.9411 34V21.352H93.8211L93.8691 25.384L93.4851 24.472C93.6611 23.832 93.9651 23.256 94.3971 22.744C94.8291 22.232 95.3251 21.832 95.8851 21.544C96.4611 21.24 97.0531 21.088 97.6611 21.088C97.9331 21.088 98.1891 21.112 98.4291 21.16C98.6851 21.208 98.8931 21.264 99.0531 21.328L98.2851 24.544C98.0931 24.448 97.8691 24.376 97.6131 24.328C97.3731 24.264 97.1251 24.232 96.8691 24.232C96.4531 24.232 96.0611 24.312 95.6931 24.472C95.3411 24.616 95.0291 24.824 94.7571 25.096C94.5011 25.368 94.2931 25.688 94.1331 26.056C93.9731 26.408 93.8931 26.8 93.8931 27.232V34H90.9411ZM106.192 34.24C104.864 34.24 103.688 33.968 102.664 33.424C101.656 32.864 100.864 32.104 100.288 31.144C99.7276 30.168 99.4476 29.048 99.4476 27.784C99.4476 26.792 99.6076 25.888 99.9276 25.072C100.248 24.256 100.696 23.552 101.272 22.96C101.848 22.352 102.528 21.888 103.312 21.568C104.112 21.232 104.976 21.064 105.904 21.064C106.752 21.064 107.528 21.224 108.232 21.544C108.952 21.864 109.576 22.304 110.104 22.864C110.632 23.408 111.032 24.064 111.304 24.832C111.592 25.584 111.728 26.408 111.712 27.304L111.688 28.36H101.464L100.888 26.32H109.216L108.856 26.728V26.176C108.808 25.696 108.648 25.272 108.376 24.904C108.104 24.52 107.752 24.224 107.32 24.016C106.904 23.792 106.44 23.68 105.928 23.68C105.144 23.68 104.48 23.832 103.936 24.136C103.392 24.424 102.976 24.856 102.688 25.432C102.416 26.008 102.28 26.72 102.28 27.568C102.28 28.384 102.448 29.096 102.784 29.704C103.136 30.312 103.632 30.784 104.272 31.12C104.912 31.456 105.656 31.624 106.504 31.624C107.096 31.624 107.64 31.528 108.136 31.336C108.648 31.144 109.192 30.8 109.768 30.304L111.208 32.32C110.776 32.72 110.28 33.064 109.72 33.352C109.176 33.624 108.6 33.84 107.992 34C107.384 34.16 106.784 34.24 106.192 34.24ZM122.2 34L118.576 29.104L117.928 28.216L112.72 21.352H116.344L119.896 26.152L120.592 27.112L125.752 34H122.2ZM112.696 34L117.712 27.304L119.368 29.296L116.152 34H112.696ZM120.616 28.096L119.008 26.104L121.912 21.352H125.392L120.616 28.096ZM134.125 34V25.912C134.125 25.224 133.893 24.688 133.429 24.304C132.981 23.904 132.397 23.704 131.677 23.704C131.005 23.704 130.397 23.84 129.853 24.112C129.309 24.368 128.805 24.784 128.341 25.36L126.517 23.536C127.269 22.736 128.101 22.128 129.013 21.712C129.925 21.296 130.909 21.088 131.965 21.088C132.973 21.088 133.837 21.248 134.557 21.568C135.293 21.888 135.861 22.368 136.261 23.008C136.661 23.632 136.861 24.4 136.861 25.312V34H134.125ZM130.525 34.24C129.709 34.24 128.981 34.08 128.341 33.76C127.701 33.44 127.189 33 126.805 32.44C126.437 31.864 126.253 31.192 126.253 30.424C126.253 29.752 126.373 29.168 126.613 28.672C126.853 28.16 127.205 27.736 127.669 27.4C128.149 27.064 128.741 26.816 129.445 26.656C130.165 26.48 130.989 26.392 131.917 26.392H135.541L135.325 28.504H131.749C131.317 28.504 130.933 28.544 130.597 28.624C130.261 28.704 129.973 28.824 129.733 28.984C129.493 29.144 129.317 29.336 129.205 29.56C129.093 29.768 129.037 30.024 129.037 30.328C129.037 30.648 129.117 30.928 129.277 31.168C129.437 31.392 129.653 31.568 129.925 31.696C130.197 31.824 130.517 31.888 130.885 31.888C131.413 31.888 131.909 31.8 132.373 31.624C132.853 31.448 133.277 31.2 133.645 30.88C134.013 30.56 134.301 30.2 134.509 29.8L135.109 31.432C134.773 31.992 134.357 32.48 133.861 32.896C133.381 33.312 132.853 33.64 132.277 33.88C131.717 34.12 131.133 34.24 130.525 34.24ZM140.867 34.264C140.291 34.264 139.843 34.096 139.523 33.76C139.219 33.424 139.067 32.952 139.067 32.344C139.067 31.784 139.227 31.328 139.547 30.976C139.883 30.608 140.323 30.424 140.867 30.424C141.427 30.424 141.867 30.592 142.187 30.928C142.507 31.248 142.667 31.72 142.667 32.344C142.667 32.904 142.499 33.368 142.163 33.736C141.827 34.088 141.395 34.264 140.867 34.264ZM150.618 34.24C149.434 34.24 148.37 33.952 147.426 33.376C146.482 32.8 145.738 32.016 145.194 31.024C144.65 30.032 144.378 28.912 144.378 27.664C144.378 26.416 144.65 25.296 145.194 24.304C145.738 23.312 146.482 22.528 147.426 21.952C148.37 21.376 149.434 21.088 150.618 21.088C151.738 21.088 152.762 21.312 153.69 21.76C154.634 22.192 155.354 22.784 155.85 23.536L154.242 25.504C154.002 25.168 153.698 24.864 153.33 24.592C152.962 24.32 152.562 24.104 152.13 23.944C151.714 23.784 151.306 23.704 150.906 23.704C150.186 23.704 149.546 23.88 148.986 24.232C148.442 24.568 148.01 25.04 147.69 25.648C147.37 26.24 147.21 26.912 147.21 27.664C147.21 28.416 147.37 29.088 147.69 29.68C148.026 30.272 148.474 30.744 149.034 31.096C149.594 31.448 150.218 31.624 150.906 31.624C151.338 31.624 151.746 31.56 152.13 31.432C152.514 31.288 152.882 31.088 153.234 30.832C153.602 30.576 153.938 30.256 154.242 29.872L155.85 31.84C155.322 32.544 154.578 33.12 153.618 33.568C152.658 34.016 151.658 34.24 150.618 34.24ZM163.628 34.24C162.364 34.24 161.236 33.96 160.244 33.4C159.252 32.824 158.468 32.04 157.892 31.048C157.332 30.056 157.052 28.928 157.052 27.664C157.052 26.4 157.332 25.272 157.892 24.28C158.468 23.288 159.252 22.512 160.244 21.952C161.236 21.376 162.364 21.088 163.628 21.088C164.876 21.088 165.996 21.376 166.988 21.952C167.98 22.512 168.756 23.288 169.316 24.28C169.892 25.272 170.18 26.4 170.18 27.664C170.18 28.928 169.892 30.056 169.316 31.048C168.756 32.04 167.98 32.824 166.988 33.4C165.996 33.96 164.876 34.24 163.628 34.24ZM163.628 31.624C164.316 31.624 164.932 31.456 165.476 31.12C166.02 30.768 166.444 30.296 166.748 29.704C167.068 29.096 167.22 28.416 167.204 27.664C167.22 26.896 167.068 26.216 166.748 25.624C166.444 25.016 166.02 24.544 165.476 24.208C164.932 23.872 164.316 23.704 163.628 23.704C162.94 23.704 162.316 23.88 161.756 24.232C161.212 24.568 160.788 25.04 160.484 25.648C160.18 26.24 160.028 26.912 160.028 27.664C160.028 28.416 160.18 29.096 160.484 29.704C160.788 30.296 161.212 30.768 161.756 31.12C162.316 31.456 162.94 31.624 163.628 31.624Z" fill="#232126"/>
</svg>
