<svg width="161" height="44" viewBox="0 0 161 44" fill="none" xmlns="http://www.w3.org/2000/svg">
<circle cx="22" cy="22" r="22" fill="#5B2FE2"/>
<path d="M14 20.6667L17.7567 26.2322C18.9639 28.0205 21.7564 26.8938 21.3845 24.7685L20.4586 19.4776C20.1907 17.9467 21.6949 16.7086 23.1457 17.2659L32 20.6667" stroke="white" stroke-width="3" stroke-linecap="round"/>
<path d="M59.92 28L56.38 17.46L58.9 17.44L61.26 24.98L60.8 24.92L63.38 19.06H64.84L67.48 24.94L66.96 24.98L69.34 17.46H71.86L68.28 28H66.56L63.84 21.66L64.22 21.7L61.66 28H59.92ZM73.4509 28V17.46H75.8509L75.8909 20.82L75.5709 20.06C75.7176 19.5267 75.9709 19.0467 76.3309 18.62C76.6909 18.1933 77.1043 17.86 77.5709 17.62C78.0509 17.3667 78.5443 17.24 79.0509 17.24C79.2776 17.24 79.4909 17.26 79.6909 17.3C79.9043 17.34 80.0776 17.3867 80.2109 17.44L79.5709 20.12C79.4109 20.04 79.2243 19.98 79.0109 19.94C78.8109 19.8867 78.6043 19.86 78.3909 19.86C78.0443 19.86 77.7176 19.9267 77.4109 20.06C77.1176 20.18 76.8576 20.3533 76.6309 20.58C76.4176 20.8067 76.2443 21.0733 76.1109 21.38C75.9776 21.6733 75.9109 22 75.9109 22.36V28H73.4509ZM86.1597 28.2C85.053 28.2 84.073 27.9733 83.2197 27.52C82.3797 27.0533 81.7197 26.42 81.2397 25.62C80.773 24.8067 80.5397 23.8733 80.5397 22.82C80.5397 21.9933 80.673 21.24 80.9397 20.56C81.2064 19.88 81.5797 19.2933 82.0597 18.8C82.5397 18.2933 83.1064 17.9067 83.7597 17.64C84.4264 17.36 85.1464 17.22 85.9197 17.22C86.6264 17.22 87.273 17.3533 87.8597 17.62C88.4597 17.8867 88.9797 18.2533 89.4197 18.72C89.8597 19.1733 90.193 19.72 90.4197 20.36C90.6597 20.9867 90.773 21.6733 90.7597 22.42L90.7397 23.3H82.2197L81.7397 21.6H88.6797L88.3797 21.94V21.48C88.3397 21.08 88.2064 20.7267 87.9797 20.42C87.753 20.1 87.4597 19.8533 87.0997 19.68C86.753 19.4933 86.3664 19.4 85.9397 19.4C85.2864 19.4 84.733 19.5267 84.2797 19.78C83.8264 20.02 83.4797 20.38 83.2397 20.86C83.013 21.34 82.8997 21.9333 82.8997 22.64C82.8997 23.32 83.0397 23.9133 83.3197 24.42C83.613 24.9267 84.0264 25.32 84.5597 25.6C85.093 25.88 85.713 26.02 86.4197 26.02C86.913 26.02 87.3664 25.94 87.7797 25.78C88.2064 25.62 88.6597 25.3333 89.1397 24.92L90.3397 26.6C89.9797 26.9333 89.5664 27.22 89.0997 27.46C88.6464 27.6867 88.1664 27.8667 87.6597 28C87.153 28.1333 86.653 28.2 86.1597 28.2ZM99.4998 28L96.4798 23.92L95.9398 23.18L91.5998 17.46H94.6198L97.5798 21.46L98.1598 22.26L102.46 28H99.4998ZM91.5798 28L95.7598 22.42L97.1398 24.08L94.4598 28H91.5798ZM98.1798 23.08L96.8398 21.42L99.2598 17.46H102.16L98.1798 23.08ZM109.437 28V21.26C109.437 20.6867 109.244 20.24 108.857 19.92C108.484 19.5867 107.997 19.42 107.397 19.42C106.837 19.42 106.331 19.5333 105.877 19.76C105.424 19.9733 105.004 20.32 104.617 20.8L103.097 19.28C103.724 18.6133 104.417 18.1067 105.177 17.76C105.937 17.4133 106.757 17.24 107.637 17.24C108.477 17.24 109.197 17.3733 109.797 17.64C110.411 17.9067 110.884 18.3067 111.217 18.84C111.551 19.36 111.717 20 111.717 20.76V28H109.437ZM106.437 28.2C105.757 28.2 105.151 28.0667 104.617 27.8C104.084 27.5333 103.657 27.1667 103.337 26.7C103.031 26.22 102.877 25.66 102.877 25.02C102.877 24.46 102.977 23.9733 103.177 23.56C103.377 23.1333 103.671 22.78 104.057 22.5C104.457 22.22 104.951 22.0133 105.537 21.88C106.137 21.7333 106.824 21.66 107.597 21.66H110.617L110.437 23.42H107.457C107.097 23.42 106.777 23.4533 106.497 23.52C106.217 23.5867 105.977 23.6867 105.777 23.82C105.577 23.9533 105.431 24.1133 105.337 24.3C105.244 24.4733 105.197 24.6867 105.197 24.94C105.197 25.2067 105.264 25.44 105.397 25.64C105.531 25.8267 105.711 25.9733 105.937 26.08C106.164 26.1867 106.431 26.24 106.737 26.24C107.177 26.24 107.591 26.1667 107.977 26.02C108.377 25.8733 108.731 25.6667 109.037 25.4C109.344 25.1333 109.584 24.8333 109.757 24.5L110.257 25.86C109.977 26.3267 109.631 26.7333 109.217 27.08C108.817 27.4267 108.377 27.7 107.897 27.9C107.431 28.1 106.944 28.2 106.437 28.2ZM115.056 28.22C114.576 28.22 114.202 28.08 113.936 27.8C113.682 27.52 113.556 27.1267 113.556 26.62C113.556 26.1533 113.689 25.7733 113.956 25.48C114.236 25.1733 114.602 25.02 115.056 25.02C115.522 25.02 115.889 25.16 116.156 25.44C116.422 25.7067 116.556 26.1 116.556 26.62C116.556 27.0867 116.416 27.4733 116.136 27.78C115.856 28.0733 115.496 28.22 115.056 28.22ZM123.182 28.2C122.195 28.2 121.309 27.96 120.522 27.48C119.735 27 119.115 26.3467 118.662 25.52C118.209 24.6933 117.982 23.76 117.982 22.72C117.982 21.68 118.209 20.7467 118.662 19.92C119.115 19.0933 119.735 18.44 120.522 17.96C121.309 17.48 122.195 17.24 123.182 17.24C124.115 17.24 124.969 17.4267 125.742 17.8C126.529 18.16 127.129 18.6533 127.542 19.28L126.202 20.92C126.002 20.64 125.749 20.3867 125.442 20.16C125.135 19.9333 124.802 19.7533 124.442 19.62C124.095 19.4867 123.755 19.42 123.422 19.42C122.822 19.42 122.289 19.5667 121.822 19.86C121.369 20.14 121.009 20.5333 120.742 21.04C120.475 21.5333 120.342 22.0933 120.342 22.72C120.342 23.3467 120.475 23.9067 120.742 24.4C121.022 24.8933 121.395 25.2867 121.862 25.58C122.329 25.8733 122.849 26.02 123.422 26.02C123.782 26.02 124.122 25.9667 124.442 25.86C124.762 25.74 125.069 25.5733 125.362 25.36C125.669 25.1467 125.949 24.88 126.202 24.56L127.542 26.2C127.102 26.7867 126.482 27.2667 125.682 27.64C124.882 28.0133 124.049 28.2 123.182 28.2ZM134.024 28.2C132.97 28.2 132.03 27.9667 131.204 27.5C130.377 27.02 129.724 26.3667 129.244 25.54C128.777 24.7133 128.544 23.7733 128.544 22.72C128.544 21.6667 128.777 20.7267 129.244 19.9C129.724 19.0733 130.377 18.4267 131.204 17.96C132.03 17.48 132.97 17.24 134.024 17.24C135.064 17.24 135.997 17.48 136.824 17.96C137.65 18.4267 138.297 19.0733 138.764 19.9C139.244 20.7267 139.484 21.6667 139.484 22.72C139.484 23.7733 139.244 24.7133 138.764 25.54C138.297 26.3667 137.65 27.02 136.824 27.5C135.997 27.9667 135.064 28.2 134.024 28.2ZM134.024 26.02C134.597 26.02 135.11 25.88 135.564 25.6C136.017 25.3067 136.37 24.9133 136.624 24.42C136.89 23.9133 137.017 23.3467 137.004 22.72C137.017 22.08 136.89 21.5133 136.624 21.02C136.37 20.5133 136.017 20.12 135.564 19.84C135.11 19.56 134.597 19.42 134.024 19.42C133.45 19.42 132.93 19.5667 132.464 19.86C132.01 20.14 131.657 20.5333 131.404 21.04C131.15 21.5333 131.024 22.0933 131.024 22.72C131.024 23.3467 131.15 23.9133 131.404 24.42C131.657 24.9133 132.01 25.3067 132.464 25.6C132.93 25.88 133.45 26.02 134.024 26.02Z" fill="white"/>
</svg>
