<svg width="66" height="67" viewBox="0 0 66 67" fill="none" xmlns="http://www.w3.org/2000/svg">
<g clip-path="url(#clip0_1312_8228)">
<line x1="55.5303" y1="9.53033" x2="11.5303" y2="53.5303" stroke="#BAACEE" stroke-width="1.5"/>
<line x1="58.5303" y1="17.5303" x2="19.5303" y2="56.5303" stroke="#BAACEE" stroke-width="1.5"/>
<line x1="62.5303" y1="24.5303" x2="25.5303" y2="61.5303" stroke="#BAACEE" stroke-width="1.5"/>
<line x1="64.5303" y1="33.5303" x2="34.5303" y2="63.5303" stroke="#BAACEE" stroke-width="1.5"/>
<path d="M2.79753e-06 47C2.43015e-06 51.2023 0.827707 55.3634 2.43586 59.2459C4.04401 63.1283 6.40111 66.6559 9.37259 69.6274C12.3441 72.5989 15.8717 74.956 19.7541 76.5641C23.6366 78.1723 27.7977 79 32 79C36.2023 79 40.3635 78.1723 44.2459 76.5641C48.1283 74.956 51.6559 72.5989 54.6274 69.6274C57.5989 66.6559 59.956 63.1283 61.5641 59.2459C63.1723 55.3634 64 51.2023 64 47L32 47L2.79753e-06 47Z" fill="#5B2FE2"/>
</g>
<rect x="2.5" y="2.5" width="61" height="62" rx="30.5" stroke="#5B2FE2" stroke-width="5"/>
<defs>
<clipPath id="clip0_1312_8228">
<rect width="66" height="67" rx="33" fill="white"/>
</clipPath>
</defs>
</svg>
