<svg width="108" height="40" viewBox="0 0 108 40" fill="none" xmlns="http://www.w3.org/2000/svg">
<g clip-path="url(#clip0_1995_387)">
<path d="M11.5894 39.8014H28.1451V23.2451L11.5894 39.8014Z" fill="#696969"/>
<path d="M7.45011 0.0664062L0 7.51652H32.2838V39.8015L39.7337 32.3514V0.0664062H7.45011Z" fill="#A1A1A1"/>
<path d="M16.556 11.6572H0V28.2135L16.556 11.6572Z" fill="#696969"/>
<path d="M28.145 11.6572H22.3506L0 34.0084V39.803H5.79463L28.145 17.4519V11.6572Z" fill="#A1A1A1"/>
<path d="M55.5404 8.43567C55.5404 10.4374 54.2004 11.6452 51.7358 11.6452H47.1035V0.0654297H51.1731C53.6545 0.0654297 55.1104 1.33908 55.1104 3.22473C55.1104 4.33325 54.5976 5.20992 53.5884 5.67335V5.72268C54.862 6.11995 55.5404 6.99633 55.5404 8.43567ZM49.1714 1.8353V4.97835H51.2227C52.447 4.97835 53.0756 4.4325 53.0756 3.42322C53.0756 2.41451 52.447 1.8353 51.2227 1.8353H49.1714ZM53.3899 8.2868C53.3899 7.24472 52.8109 6.69888 51.5536 6.69888H49.1714V9.875H51.5536C52.8109 9.875 53.3899 9.34541 53.3899 8.2868Z" fill="#696969"/>
<path d="M61.5379 3.70459V5.52437C61.3063 5.49128 61.0747 5.47474 60.8597 5.47474C59.4041 5.47474 58.6595 6.25216 58.6595 7.87345V11.645H56.6743V3.72141H58.461L58.5768 4.92889H58.6264C59.0071 4.08503 59.8342 3.57227 60.7935 3.57227C61.0747 3.57227 61.3394 3.62189 61.5379 3.70459Z" fill="#696969"/>
<path d="M62.376 1.2571C62.376 0.545846 62.9546 0 63.6662 0C64.3609 0 64.9401 0.545846 64.9401 1.2571C64.9401 1.98518 64.3609 2.5142 63.6662 2.5142C62.9546 2.51421 62.376 1.98518 62.376 1.2571ZM62.6737 3.72197H64.6589V11.6459H62.6737V3.72197Z" fill="#696969"/>
<path d="M71.1945 10.0409V11.7118C70.9133 11.7945 70.5161 11.8442 70.0201 11.8442C68.0347 11.8442 67.0918 10.9507 67.0918 8.78382V5.45855H65.7686V3.72175H67.0918V1.80273H69.077V3.72175H71.1446V5.45855H69.077V8.66804C69.077 9.77627 69.4409 10.1071 70.4833 10.1071C70.7146 10.1071 70.9792 10.0905 71.1945 10.0409Z" fill="#696969"/>
<path d="M72.0898 1.2571C72.0898 0.545846 72.6685 0 73.3797 0C74.0747 0 74.6537 0.545846 74.6537 1.2571C74.6537 1.98518 74.0747 2.5142 73.3797 2.5142C72.6685 2.51421 72.0898 1.98518 72.0898 1.2571ZM72.3873 3.72197H74.3725V11.6459H72.3873V3.72197Z" fill="#696969"/>
<path d="M75.5039 9.16443H77.4229C77.4888 9.87568 78.0347 10.2892 78.8785 10.2892C79.689 10.2892 80.169 9.90877 80.169 9.37946C80.169 8.96594 79.8547 8.66792 78.8951 8.48597L77.9189 8.28748C76.3144 7.99003 75.5535 7.24541 75.5535 6.05419C75.5535 4.59859 76.7445 3.52344 78.7958 3.52344C80.6818 3.52344 81.8396 4.41664 81.9554 6.00456H80.0364C79.9705 5.44246 79.5071 5.07856 78.6966 5.07856C77.9026 5.07856 77.4557 5.42563 77.4557 5.92214C77.4557 6.30258 77.7041 6.55069 78.7459 6.74919L79.7221 6.93113C81.3762 7.24541 82.0877 8.00629 82.0877 9.21405C82.0877 10.7358 80.8802 11.8443 78.8124 11.8443C76.8272 11.8443 75.5698 10.802 75.5039 9.16443Z" fill="#696969"/>
<path d="M90.349 6.68233V11.6452H88.3638V7.31089C88.3638 5.87183 87.8342 5.34252 86.8913 5.34252C85.8162 5.34252 85.138 6.00416 85.138 7.37733V11.6452H83.1528V0.0654297H85.138V4.69743H85.1876C85.7169 3.95309 86.5605 3.52275 87.6029 3.52275C89.2903 3.52275 90.349 4.66435 90.349 6.68233Z" fill="#696969"/>
<path d="M55.5404 22.5148C55.5404 24.5165 54.2004 25.7243 51.7358 25.7243H47.1035V14.1445H51.1731C53.6545 14.1445 55.1104 15.4182 55.1104 17.3038C55.1104 18.4124 54.5976 19.289 53.5884 19.7524V19.8018C54.862 20.199 55.5404 21.0754 55.5404 22.5148ZM49.1714 15.9144V19.0574H51.2227C52.447 19.0574 53.0756 18.5116 53.0756 17.5023C53.0756 16.4936 52.447 15.9144 51.2227 15.9144H49.1714V15.9144ZM53.3899 22.3659C53.3899 21.3238 52.8109 20.778 51.5536 20.778H49.1714V23.9541H51.5536C52.8109 23.9541 53.3899 23.4245 53.3899 22.3659Z" fill="#696969"/>
<path d="M63.7799 17.8008V25.7247H61.9767L61.8774 24.7154H61.8278C61.3316 25.4598 60.3885 25.9232 59.3629 25.9232C57.775 25.9232 56.6665 24.8149 56.6665 22.7633V17.8008H58.6517V22.1516C58.6517 23.5906 59.1644 24.1199 60.0742 24.1199C61.0997 24.1199 61.7947 23.4418 61.7947 22.0689V17.8008H63.7799Z" fill="#696969"/>
<path d="M64.9097 23.2426H66.8287C66.8946 23.9538 67.4404 24.3673 68.2843 24.3673C69.0948 24.3673 69.5748 23.9869 69.5748 23.4576C69.5748 23.0441 69.2605 22.746 68.3008 22.5641L67.3246 22.3656C65.7202 22.0682 64.9593 21.3235 64.9593 20.1323C64.9593 18.6767 66.1502 17.6016 68.2016 17.6016C70.0875 17.6016 71.2454 18.4948 71.3612 20.0827H69.4422C69.3763 19.5206 68.9129 19.1567 68.1023 19.1567C67.3084 19.1567 66.8615 19.5038 66.8615 20.0003C66.8615 20.3807 67.1099 20.6288 68.1517 20.8273L69.1279 21.0093C70.782 21.3235 71.4935 22.0844 71.4935 23.2922C71.4935 24.8139 70.286 25.9225 68.2181 25.9225C66.2329 25.9225 64.9755 24.8801 64.9097 23.2426Z" fill="#696969"/>
<path d="M72.3403 15.3355C72.3403 14.6243 72.919 14.0781 73.6305 14.0781C74.3252 14.0781 74.9044 14.6243 74.9044 15.3355C74.9044 16.0633 74.3252 16.5926 73.6305 16.5926C72.919 16.5926 72.3403 16.0633 72.3403 15.3355ZM72.6381 17.8004H74.6232V25.7243H72.6381V17.8004Z" fill="#696969"/>
<path d="M83.2669 20.7611V25.724H81.2817V21.3897C81.2817 19.9506 80.7524 19.4213 79.8093 19.4213C78.7342 19.4213 78.056 20.083 78.056 21.4561V25.724H76.0708V17.8001H77.874L77.9567 18.8093H78.0229C78.5026 18.065 79.4454 17.6016 80.5208 17.6016C82.1749 17.6016 83.2669 18.7266 83.2669 20.7611Z" fill="#696969"/>
<path d="M92.1963 22.2498H86.2738C86.4392 23.5899 87.2996 24.2516 88.441 24.2516C89.2845 24.2516 89.963 23.8877 90.2773 23.2426H92.1464C91.7329 24.9297 90.2938 25.9222 88.4079 25.9222C85.9761 25.9222 84.3052 24.2516 84.3052 21.8198C84.3052 19.3221 86.0423 17.6016 88.4244 17.6016C90.6412 17.6016 92.2622 19.1236 92.2622 21.5055C92.2622 21.7536 92.2456 21.9686 92.1963 22.2498ZM86.34 20.8935H90.2773C90.0953 19.7522 89.3838 19.2394 88.4244 19.2394C87.3986 19.2394 86.6046 19.8015 86.34 20.8935Z" fill="#696969"/>
<path d="M93.1753 23.2426H95.0943C95.1602 23.9538 95.706 24.3673 96.5499 24.3673C97.3604 24.3673 97.8404 23.9869 97.8404 23.4576C97.8404 23.0441 97.5261 22.746 96.5664 22.5641L95.5903 22.3656C93.9858 22.0682 93.2249 21.3235 93.2249 20.1323C93.2249 18.6767 94.4159 17.6016 96.4672 17.6016C98.3531 17.6016 99.511 18.4948 99.6268 20.0827H97.7078C97.6419 19.5206 97.1785 19.1567 96.3679 19.1567C95.574 19.1567 95.1271 19.5038 95.1271 20.0003C95.1271 20.3807 95.3755 20.6288 96.4173 20.8273L97.3935 21.0093C99.0476 21.3235 99.7591 22.0844 99.7591 23.2922C99.7591 24.8139 98.5516 25.9225 96.4838 25.9225C94.4986 25.9225 93.2412 24.8801 93.1753 23.2426Z" fill="#696969"/>
<path d="M100.609 23.2426H102.528C102.594 23.9538 103.14 24.3673 103.984 24.3673C104.794 24.3673 105.274 23.9869 105.274 23.4576C105.274 23.0441 104.96 22.746 104 22.5641L103.024 22.3656C101.419 22.0682 100.659 21.3235 100.659 20.1323C100.659 18.6767 101.849 17.6016 103.901 17.6016C105.787 17.6016 106.945 18.4948 107.06 20.0827H105.141C105.075 19.5206 104.612 19.1567 103.802 19.1567C103.008 19.1567 102.561 19.5038 102.561 20.0003C102.561 20.3807 102.809 20.6288 103.851 20.8273L104.827 21.0093C106.481 21.3235 107.193 22.0844 107.193 23.2922C107.193 24.8139 105.985 25.9225 103.917 25.9225C101.932 25.9225 100.675 24.8801 100.609 23.2426Z" fill="#696969"/>
<path d="M55.5404 36.5919C55.5404 38.5936 54.2004 39.8014 51.7358 39.8014H47.1035V28.2217H51.1731C53.6545 28.2217 55.1104 29.4953 55.1104 31.381C55.1104 32.4895 54.5976 33.3662 53.5884 33.8296V33.8789C54.862 34.2762 55.5404 35.1526 55.5404 36.5919ZM49.1714 29.9915V33.1346H51.2227C52.447 33.1346 53.0756 32.5887 53.0756 31.5795C53.0756 30.5708 52.447 29.9915 51.2227 29.9915H49.1714ZM53.3899 36.443C53.3899 35.401 52.8109 34.8551 51.5536 34.8551H49.1714V38.0312H51.5536C52.8109 38.0312 53.3899 37.5017 53.3899 36.443Z" fill="#696969"/>
<path d="M63.6339 34.8879V39.8008H61.8475L61.7482 38.7918H61.6986C61.2355 39.5031 60.2593 39.9993 59.1011 39.9993C57.5132 39.9993 56.4546 39.0565 56.4546 37.6999C56.4546 36.41 57.3974 35.533 59.333 35.2518L61.6986 34.9045V34.8218C61.6986 33.8125 61.2186 33.3328 60.2096 33.3328C59.2503 33.3328 58.7541 33.7794 58.6879 34.5406H56.7192C56.8185 32.7869 58.1255 31.6787 60.2758 31.6787C62.4595 31.6787 63.6339 32.82 63.6339 34.8879ZM61.6986 36.4758V36.2608L59.8954 36.5089C58.8533 36.6578 58.4726 37.0217 58.4726 37.5678C58.4726 38.1299 58.9026 38.4442 59.6473 38.4442C60.8716 38.4442 61.6986 37.634 61.6986 36.4758Z" fill="#696969"/>
<path d="M72.284 34.8383V39.8011H70.2988V35.4668C70.2988 34.0278 69.7692 33.4985 68.8264 33.4985C67.7513 33.4985 67.0731 34.1601 67.0731 35.5333V39.8011H65.0879V31.8772H66.8911L66.9738 32.8865H67.04C67.5197 32.1421 68.4625 31.6787 69.5379 31.6787C71.192 31.6787 72.284 32.8038 72.284 34.8383Z" fill="#696969"/>
<path d="M78.7916 39.8014L75.7643 36.311H75.7147V39.8014H73.7295V28.2217H75.7147V35.0374H75.7643L78.7257 31.8775H81.1572L77.6337 35.616L81.273 39.8014H78.7916Z" fill="#696969"/>
</g>
<defs>
<clipPath id="clip0_1995_387">
<rect width="107.193" height="40" fill="white"/>
</clipPath>
</defs>
</svg>
