<svg width="105" height="24" viewBox="0 0 105 24" fill="none" xmlns="http://www.w3.org/2000/svg">
<path d="M7.48259 15.6612C11.0131 15.6612 12.3902 13.5054 12.3902 9.81683C12.3902 6.1291 10.7797 3.55779 7.58604 3.55779H4.00673V15.6612H7.48259ZM0.241211 0.337655H8.05362C13.0125 0.337655 16.2062 4.33738 16.2062 9.81683C16.2062 12.8292 15.1932 15.4792 13.2459 17.1153C11.8696 18.2574 10.0779 18.907 7.74162 18.907H0.241211V0.337655ZM26.9607 12.259C26.9607 9.66124 25.7408 7.89517 23.5858 7.89517C21.4042 7.89517 20.2092 9.66124 20.2092 12.259C20.2092 14.856 21.4042 16.5956 23.5858 16.5956C25.7408 16.5956 26.9607 14.856 26.9607 12.259ZM16.6266 12.259C16.6266 8.28496 19.4569 5.22041 23.5858 5.22041C27.7138 5.22041 30.5441 8.28496 30.5441 12.259C30.5441 16.2314 27.7138 19.2968 23.5858 19.2968C19.4561 19.2968 16.6258 16.2323 16.6258 12.259H16.6266ZM31.1276 12.259C31.1276 8.28496 33.7245 5.22041 37.7747 5.22041C41.2291 5.22041 43.3576 7.22069 43.8252 10.1032H40.3717C40.1383 8.93462 39.2296 8.05076 37.9311 8.05076C35.8018 8.05076 34.7118 9.68772 34.7118 12.259C34.7118 14.7782 35.724 16.4665 37.879 16.4665C39.3074 16.4665 40.3204 15.7134 40.5538 14.2072H43.9551C43.7218 17.0375 41.5138 19.2968 37.9568 19.2968C33.751 19.2968 31.1276 16.2323 31.1276 12.259ZM53.1496 18.9079V17.3495H53.0718C52.1631 18.5702 51.1245 19.2712 49.255 19.2712C46.2947 19.2712 44.6329 17.376 44.6329 14.4662V5.58372H48.1378V13.8687C48.1378 15.427 48.8396 16.2844 50.3449 16.2844C52.0067 16.2844 53.0197 15.0381 53.0197 13.272V5.58372H56.551V18.9079H53.1496ZM73.7557 18.9079H77.2862V5.58372H73.7557V18.9079ZM73.7557 3.72165H77.2862V0.419586H73.7557V3.72165ZM88.0729 11.6607C88.0729 9.71338 87.0343 8.05159 84.9049 8.05159C83.1132 8.05159 81.919 9.45352 81.919 11.6872C81.919 13.9465 83.1132 15.2714 84.9314 15.2714C87.1642 15.2714 88.0729 13.6353 88.0729 11.6615V11.6607ZM78.751 19.2968H82.255C82.5413 20.1277 83.2936 20.7774 84.9298 20.7774C86.9292 20.7774 87.89 19.8165 87.89 17.9983V16.5434H87.8122C87.0327 17.4265 86.0205 18.1018 84.3322 18.1018C81.3728 18.1018 78.4647 15.7647 78.4647 11.7393C78.4647 7.76524 80.8531 5.22041 84.2288 5.22041C85.8906 5.22041 87.1105 5.86924 87.9157 6.98648H87.9678V5.58372H91.3692V17.8941C91.3692 19.7644 90.7717 21.0364 89.7852 21.9459C88.668 22.9845 86.9549 23.4521 84.9819 23.4521C81.3463 23.4521 79.1135 21.8938 78.7502 19.2968H78.751ZM96.338 7.40193H96.4158C97.3245 5.97352 98.5452 5.22041 100.363 5.22041C103.115 5.22041 104.958 7.29765 104.958 10.2066V18.907H101.427V10.7263C101.427 9.29793 100.596 8.28496 99.1162 8.28496C97.5579 8.28496 96.4158 9.53131 96.4158 11.3495V18.907H92.8845V5.58372H96.338V7.40193ZM65.7082 7.7131C62.9557 7.11724 61.6572 6.67531 61.6572 5.16828C61.6572 3.84414 62.9813 2.98676 65.0073 2.98676C66.8553 2.98676 68.268 3.85407 68.5576 5.58372H72.1791C71.8109 1.97793 69.1353 0 65.0329 0C60.9049 0 57.9182 1.896 57.9182 5.55807C57.9182 9.42786 60.9562 10.3109 64.2798 11.064C67.1102 11.7137 68.8762 12.077 68.8762 13.8943C68.8762 15.6091 67.188 16.2844 65.2671 16.2844C62.6189 16.2844 61.346 15.4014 61.0862 13.1677H57.3993C57.5292 17.0897 60.3852 19.3225 65.4227 19.3225C69.6029 19.3225 72.6409 17.2196 72.6409 13.4532C72.6409 9.45352 69.5251 8.54483 65.7082 7.7131Z" fill="#4C4C4C"/>
</svg>
