<svg width="105" height="32" viewBox="0 0 105 32" fill="none" xmlns="http://www.w3.org/2000/svg">
<path d="M87.0021 11.2803L91.324 16.0433L95.4847 11.2803H104.369L95.6864 21.0443L104.488 30.8881H95.2452L90.964 26.0874L86.722 30.8881H77.7969L86.5218 21.0849L77.7969 11.2803H87.0021Z" fill="#ACACAC"/>
<path d="M77.7964 11.2791V17.904H67.9149V23.9833H77.7964V30.8869H60.6528V0H77.7964V6.88472H67.9149V11.2791H77.7964Z" fill="#ACACAC"/>
<path d="M53.4219 0V12.6404H53.3421C51.7399 10.8002 49.7401 10.1602 47.4195 10.1602C42.6652 10.1602 39.0835 13.3936 37.8268 17.666C36.3915 12.9582 32.6937 10.0717 27.2109 10.0717C22.7585 10.0717 19.2421 12.07 17.4077 15.3266V11.2791H8.2039V6.88472H18.248V0H0V30.8869H8.2039V17.904H16.3817C16.1379 18.8575 16.0073 19.8792 16.0073 20.9575C16.0073 27.3995 20.9299 31.9216 27.2109 31.9216C32.4934 31.9216 35.975 29.4414 37.8152 24.9208H30.7839C29.8333 26.2806 29.112 26.6826 27.2109 26.6826C25.0064 26.6826 23.1053 24.7597 23.1053 22.4798H37.4219C38.043 27.5969 42.0296 32.0102 47.4993 32.0102C49.8591 32.0102 52.02 30.8492 53.3406 28.89H53.4204V30.8898H60.652V0H53.4219ZM23.3346 17.9955C23.7903 16.0334 25.3127 14.7519 27.2123 14.7519C29.3036 14.7519 30.7476 15.9942 31.1278 17.9955C31.2874 17.9955 23.3346 17.9955 23.3346 17.9955ZM49.0318 26.1848C46.3659 26.1848 44.7086 23.7003 44.7086 21.1069C44.7086 18.3351 46.1497 15.6691 49.0318 15.6691C52.02 15.6691 53.21 18.3351 53.21 21.1069C53.21 23.7351 51.9489 26.1848 49.0318 26.1848Z" fill="#707070"/>
</svg>
