<svg width="32" height="32" viewBox="0 0 32 32" fill="none" xmlns="http://www.w3.org/2000/svg">
<path d="M31.9827 16.2994C31.9827 14.9884 31.8739 14.0317 31.6383 13.0396H16.3184V18.9569H25.3108C25.1296 20.4274 24.1506 22.642 21.9749 24.1301L21.9444 24.3282L26.7883 27.9952L27.1239 28.0279C30.2059 25.2463 31.9827 21.1537 31.9827 16.2994Z" fill="#4285F4"/>
<path d="M16.3188 31.8901C20.7244 31.8901 24.4229 30.4727 27.1243 28.0279L21.9754 24.1301C20.5975 25.0691 18.7482 25.7246 16.3188 25.7246C12.0039 25.7246 8.34163 22.9432 7.03614 19.0986L6.84479 19.1145L1.80806 22.9236L1.74219 23.1025C4.42541 28.3112 9.93697 31.8901 16.3188 31.8901Z" fill="#34A853"/>
<path d="M7.03635 19.0987C6.69189 18.1066 6.49253 17.0435 6.49253 15.9451C6.49253 14.8466 6.69189 13.7837 7.01823 12.7916L7.00911 12.5803L1.90926 8.70996L1.7424 8.78752C0.636513 10.949 0.00195312 13.3762 0.00195312 15.9451C0.00195312 18.5141 0.636513 20.9412 1.7424 23.1026L7.03635 19.0987Z" fill="#FBBC05"/>
<path d="M16.3188 6.16538C19.3827 6.16538 21.4495 7.45869 22.628 8.53948L27.2331 4.14571C24.4048 1.57679 20.7244 0 16.3188 0C9.93697 0 4.42541 3.57875 1.74219 8.78742L7.01802 12.7915C8.34163 8.94693 12.0039 6.16538 16.3188 6.16538Z" fill="#EB4335"/>
</svg>
