<svg width="40" height="40" viewBox="0 0 40 40" fill="none" xmlns="http://www.w3.org/2000/svg">
<g clip-path="url(#clip0_1312_7594)">
<path d="M0 29.8253V29.8271C0.0239581 30.715 0.0313479 31.6081 0.181242 32.4906C0.340081 33.4242 0.567138 34.3346 1.00033 35.1819C1.58598 36.3288 2.39029 37.2973 3.40555 38.0885C4.13449 38.6565 4.93078 39.1075 5.81225 39.392C7.09759 39.8062 8.42361 39.965 9.769 39.9728C10.6084 39.9781 11.4472 39.9991 12.2869 39.9956C18.385 39.9699 24.4832 40.0396 30.5814 39.958C31.3906 39.947 32.1866 39.8484 32.9807 39.7033C34.5029 39.4248 35.8482 38.7759 36.9992 37.7498C38.3407 36.5544 39.2457 35.0913 39.6542 33.3255C39.9216 32.1713 39.9885 31.0003 39.9999 29.8252V29.5908C39.9999 29.4998 39.9653 9.62415 39.9621 9.36144C39.9532 8.63978 39.9 7.92355 39.7645 7.21347C39.5999 6.34817 39.3672 5.50502 38.9525 4.72219C38.5147 3.89513 37.9662 3.15147 37.2878 2.50162C36.2487 1.50598 35.0495 0.801876 33.6535 0.429424C32.3926 0.0931132 31.1063 0.0186538 29.8105 0.0198196C29.8084 0.0195088 29.8035 0.00637335 29.8032 0H10.1905C10.1901 0.00668425 10.1899 0.0133686 10.1894 0.0198196C9.45404 0.0332659 8.71756 0.0277473 7.98591 0.118373C7.1844 0.217937 6.39059 0.367867 5.63194 0.647828C4.43699 1.08945 3.39878 1.77731 2.51195 2.69562C1.50718 3.73603 0.798941 4.93927 0.423156 6.3404C0.0878984 7.59051 0.0149354 8.86549 0.0131463 10.1495" fill="#FFFC00"/>
<path d="M20.1813 33.7485C20.0982 33.7485 20.019 33.7454 19.9587 33.7425C19.9109 33.7467 19.8615 33.7485 19.812 33.7485C18.0667 33.7485 16.8998 32.924 15.8699 32.1961C15.1318 31.6751 14.4357 31.1833 13.6202 31.0477C13.2197 30.9813 12.8213 30.9477 12.4363 30.9477C11.7427 30.9477 11.1945 31.0552 10.7943 31.1334C10.5481 31.1813 10.3357 31.2226 10.1716 31.2226C9.99967 31.2226 9.79081 31.1845 9.70377 30.8875C9.63477 30.6533 9.5853 30.4263 9.53754 30.2078C9.41806 29.6616 9.33141 29.3282 9.12675 29.2966C6.93777 28.9591 5.64443 28.462 5.3868 27.8599C5.36062 27.7998 5.34524 27.7355 5.34137 27.6701C5.33652 27.5836 5.36383 27.4983 5.41807 27.4307C5.4723 27.3632 5.54962 27.318 5.63517 27.3039C7.37353 27.0179 8.91922 26.0998 10.2295 24.5743C11.2446 23.3933 11.743 22.2649 11.7965 22.1403C11.7989 22.1346 11.8015 22.129 11.8044 22.1235C12.0569 21.6114 12.1072 21.1689 11.9542 20.8087C11.6721 20.1441 10.738 19.8479 10.12 19.652C9.9663 19.6034 9.82091 19.5574 9.70509 19.5115C9.15724 19.2952 8.25625 18.8384 8.37627 18.2078C8.4637 17.748 9.07238 17.4278 9.5643 17.4278C9.70089 17.4278 9.82192 17.4517 9.92382 17.4995C10.4797 17.7597 10.9798 17.8916 11.4098 17.8916C11.9447 17.8916 12.203 17.6882 12.2655 17.6303C12.2493 17.3385 12.2317 17.0467 12.2127 16.755C12.0871 14.7594 11.9305 12.276 12.5663 10.8519C14.4691 6.58896 18.5044 6.25747 19.6955 6.25747C19.8921 6.25582 20.0886 6.25398 20.2852 6.25195C21.4796 6.25195 25.5233 6.58383 27.4272 10.8493C28.063 12.2744 27.9062 14.7599 27.7803 16.7576L27.7744 16.8532C27.7571 17.1244 27.7412 17.3811 27.7277 17.63C27.7865 17.6841 28.0229 17.8707 28.5039 17.8895C28.9139 17.8738 29.385 17.7426 29.9039 17.4998C30.0643 17.4246 30.2418 17.409 30.3624 17.409C30.5447 17.409 30.7301 17.4444 30.8847 17.5088L30.8929 17.512C31.3332 17.6682 31.6215 17.9802 31.6278 18.3081C31.6333 18.6137 31.406 19.0705 30.2881 19.5116C30.1735 19.5569 30.0275 19.6033 29.8731 19.6522C29.2546 19.8483 28.3212 20.1443 28.0392 20.8085C27.8859 21.1688 27.9363 21.6111 28.189 22.123C28.1918 22.1286 28.1942 22.1343 28.1969 22.1402C28.2747 22.3224 30.1575 26.612 34.3583 27.3035C34.4438 27.3177 34.5211 27.3628 34.5753 27.4304C34.6296 27.498 34.6569 27.5832 34.6522 27.6697C34.648 27.7358 34.6323 27.8006 34.6056 27.8613C34.3498 28.46 33.0565 28.9564 30.8669 29.2943C30.6614 29.3261 30.5748 29.6579 30.4565 30.2012C30.4075 30.4256 30.3576 30.6456 30.2895 30.8767C30.2258 31.0941 30.0841 31.2004 29.8565 31.2004H29.8222C29.674 31.2004 29.4641 31.1735 29.1993 31.1217C28.7365 31.0317 28.2174 30.9479 27.5573 30.9479C27.1724 30.9479 26.7741 30.9816 26.3731 31.0479C25.5584 31.1835 24.8624 31.6746 24.1256 32.195C23.0938 32.924 21.9264 33.7485 20.1813 33.7485Z" fill="white"/>
<path d="M20.2855 6.60286C21.4099 6.60286 25.2818 6.90466 27.1064 10.9921C27.7072 12.338 27.5532 14.7761 27.4297 16.7347C27.4104 17.0455 27.3913 17.3468 27.3757 17.6344L27.3692 17.7581L27.4518 17.8502C27.4851 17.8872 27.7975 18.2133 28.4921 18.2401L28.5033 18.2408L28.515 18.2405C28.9742 18.223 29.4915 18.0805 30.0533 17.8175C30.136 17.7788 30.2462 17.76 30.3627 17.76C30.4955 17.76 30.6366 17.7849 30.7529 17.8339L30.7705 17.8409C31.0651 17.944 31.2733 18.1385 31.2765 18.3144C31.2782 18.4139 31.2038 18.7723 30.1596 19.1845C30.0575 19.2247 29.9232 19.2676 29.7675 19.3166C29.0879 19.5322 28.0613 19.8576 27.7158 20.6711C27.5212 21.1294 27.5745 21.6702 27.874 22.2783C27.9972 22.5656 29.9369 26.9312 34.3015 27.6498C34.3 27.6741 34.294 27.6978 34.2837 27.7198C34.2097 27.8939 33.7395 28.4954 30.8135 28.9465C30.3557 29.0166 30.2435 29.5294 30.1135 30.1256C30.0665 30.339 30.0187 30.5545 29.9531 30.777C29.933 30.8442 29.9293 30.848 29.8572 30.848H29.8228C29.693 30.848 29.4961 30.8211 29.2678 30.7764C28.852 30.6955 28.284 30.5962 27.5579 30.5962C27.1526 30.5962 26.7351 30.6314 26.3163 30.7013C25.4209 30.85 24.6927 31.3647 23.9215 31.9093C22.8859 32.6406 21.8155 33.3972 20.1823 33.3972C20.111 33.3972 20.0413 33.3948 19.9716 33.3913L19.9532 33.3905L19.9348 33.3919C19.8947 33.3954 19.8543 33.3972 19.8131 33.3972C18.1801 33.3972 17.1093 32.6408 16.0741 31.9093C15.3028 31.3647 14.5742 30.85 13.679 30.7013C13.2605 30.6316 12.8426 30.5962 12.4376 30.5962C11.7116 30.5962 11.1429 30.7072 10.728 30.7883C10.4997 30.8329 10.3021 30.8711 10.1727 30.8711C10.0668 30.8711 10.0647 30.8649 10.0423 30.7884C9.97668 30.5657 9.92868 30.3452 9.88193 30.132C9.75156 29.5353 9.63932 29.0196 9.1817 28.9495C6.25594 28.498 5.78564 27.8955 5.71144 27.7218C5.70135 27.6993 5.69527 27.6751 5.69347 27.6505C10.058 26.9325 11.9973 22.5667 12.1209 22.2783C12.4209 21.6706 12.4742 21.1299 12.279 20.6711C11.9335 19.858 10.907 19.5322 10.2279 19.317C10.0718 19.2676 9.93739 19.2247 9.83526 19.1845C8.95348 18.8364 8.68224 18.4857 8.72253 18.2732C8.76928 18.0281 9.19446 17.7789 9.5655 17.7789C9.64889 17.7789 9.72201 17.7924 9.77607 17.8176C10.3787 18.0998 10.9288 18.2429 11.4113 18.2429C12.1698 18.2429 12.5074 17.8903 12.5436 17.85L12.6258 17.7582L12.6192 17.6351C12.6039 17.3476 12.585 17.0465 12.5651 16.7363C12.442 14.7772 12.2879 12.3407 12.8885 10.9947C14.7064 6.9223 18.5594 6.60838 19.6967 6.60838C19.7247 6.60838 20.2192 6.60332 20.2192 6.60332C20.2395 6.60317 20.2619 6.60286 20.2855 6.60286ZM20.2855 5.90039H20.2842C20.2583 5.90039 20.2339 5.90039 20.2108 5.9007L19.6948 5.90583C19.0285 5.90583 17.6953 5.99988 16.2633 6.63146C15.4445 6.99233 14.708 7.48028 14.0744 8.08179C13.3189 8.79848 12.7035 9.68212 12.2455 10.7085C11.5747 12.2114 11.7339 14.7428 11.8618 16.7771L11.8623 16.7802C11.876 16.9981 11.8904 17.2256 11.9035 17.4473C11.8051 17.4924 11.6456 17.5401 11.4104 17.5401C11.0321 17.5401 10.5822 17.4192 10.0735 17.1811C9.92386 17.1114 9.75304 17.0762 9.56457 17.0762C9.26175 17.0762 8.94251 17.1653 8.66559 17.328C8.31719 17.5324 8.09208 17.8213 8.03094 18.1416C7.99064 18.3535 7.99259 18.7722 8.45814 19.1969C8.71421 19.4307 9.09038 19.6463 9.57592 19.8381C9.70334 19.8882 9.85455 19.9361 10.0147 19.9868C10.5705 20.1633 11.4117 20.43 11.631 20.9459C11.7422 21.2074 11.6943 21.5516 11.4892 21.9675C11.4839 21.9789 11.4785 21.99 11.4736 22.0017C11.4223 22.1213 10.9441 23.2037 9.96314 24.3452C9.40573 24.9943 8.79176 25.5368 8.13929 25.9581C7.34292 26.4724 6.48121 26.8086 5.57834 26.9572C5.40716 26.9853 5.25242 27.0757 5.14388 27.2109C5.03533 27.3461 4.98066 27.5167 4.99036 27.6897C4.99643 27.7931 5.0207 27.8962 5.06278 27.9959L5.06379 27.9977C5.20715 28.3327 5.53953 28.6174 6.07991 28.8684C6.74023 29.1749 7.7278 29.4327 9.01493 29.6344C9.07996 29.7579 9.14748 30.0685 9.19423 30.2812C9.24315 30.5072 9.29418 30.7396 9.36691 30.9865C9.4454 31.2539 9.64896 31.5735 10.1719 31.5735C10.3701 31.5735 10.598 31.5289 10.862 31.4777C11.2485 31.402 11.777 31.2986 12.4367 31.2986C12.8025 31.2986 13.1815 31.3308 13.5631 31.3941C14.2985 31.5165 14.9326 31.964 15.6662 32.4822C16.7399 33.2407 17.9553 34.0991 19.8123 34.0991C19.863 34.0991 19.9138 34.0975 19.9639 34.094C20.0253 34.0969 20.1014 34.0991 20.1817 34.0991C22.0392 34.0991 23.2543 33.2404 24.3269 32.4826L24.3286 32.481C25.0623 31.9634 25.6957 31.5165 26.4309 31.3941C26.8123 31.3308 27.1913 31.2986 27.5572 31.2986C28.1874 31.2986 28.6864 31.3789 29.132 31.4657C29.4227 31.5229 29.6487 31.5504 29.8221 31.5504L29.839 31.5507H29.8566C30.2391 31.5507 30.5201 31.341 30.6274 30.9739C30.6986 30.7322 30.7495 30.5053 30.7997 30.2754C30.8434 30.0762 30.9133 29.7567 30.9783 29.6318C32.2663 29.4297 33.2534 29.1725 33.9139 28.8661C34.453 28.6162 34.785 28.3319 34.9292 27.9982C34.9724 27.8982 34.9977 27.7945 35.0034 27.6889C35.0131 27.5159 34.9585 27.3453 34.8499 27.2101C34.7413 27.0748 34.5865 26.9845 34.4153 26.9565C30.4027 26.2957 28.5951 22.176 28.5203 22.001C28.5154 21.9894 28.5101 21.9781 28.5044 21.9669C28.2993 21.5508 28.2519 21.207 28.3631 20.945C28.582 20.4296 29.4226 20.1629 29.9788 19.9865C30.1398 19.9358 30.2916 19.8876 30.418 19.8377C30.9655 19.6217 31.3569 19.3873 31.615 19.1211C31.9234 18.8037 31.9834 18.4997 31.9797 18.3007C31.9703 17.8193 31.602 17.3915 31.0161 17.182C30.8182 17.1002 30.5925 17.0571 30.3628 17.0571C30.2063 17.0571 29.9747 17.0786 29.7554 17.1808C29.286 17.4003 28.8655 17.5203 28.5045 17.5374C28.3125 17.5277 28.1778 17.4861 28.0906 17.4464C28.1016 17.2586 28.1137 17.0657 28.1263 16.8646L28.1315 16.7785C28.26 14.7429 28.4198 12.2095 27.7488 10.7056C27.2888 9.67551 26.6712 8.78962 25.9127 8.07137C25.2766 7.46948 24.5376 6.98161 23.7159 6.62097C22.2859 5.99405 20.9528 5.90039 20.2855 5.90039Z" fill="#020202"/>
</g>
<defs>
<clipPath id="clip0_1312_7594">
<rect width="40" height="40" fill="white"/>
</clipPath>
</defs>
</svg>
