<svg width="146" height="40" viewBox="0 0 146 40" fill="none" xmlns="http://www.w3.org/2000/svg">
<g clip-path="url(#clip0_1995_419)">
<path d="M22.5984 39.193C33.1985 39.193 41.7916 30.5999 41.7916 19.9998C41.7916 9.39971 33.1985 0.806641 22.5984 0.806641C11.9983 0.806641 3.40527 9.39971 3.40527 19.9998C3.40527 30.5999 11.9983 39.193 22.5984 39.193Z" fill="#898989"/>
<path d="M16.7915 19.9564H19.0965C19.0965 14.8589 23.2188 10.7366 28.3163 10.7366V8.43164C21.9776 8.43164 16.7915 13.5735 16.7915 19.9564ZM28.3163 19.9564H26.0113C26.0113 25.0539 21.889 29.1762 16.7915 29.1762V31.4812C23.1301 31.4812 28.3163 26.3393 28.3163 19.9564Z" fill="white"/>
<path d="M58.8435 11.0596C58.4501 10.7846 58.0123 10.5792 57.5494 10.4525C57.1046 10.2902 56.6082 10.2502 56.1341 10.2502C55.8359 10.2547 55.5386 10.2822 55.2446 10.3325C55.0037 10.395 54.7725 10.4904 54.5576 10.616C54.3552 10.7372 54.2341 10.8984 54.1129 11.0607C53.9917 11.2231 53.9505 11.4137 53.9505 11.6678C53.9474 11.8504 53.989 12.0309 54.0717 12.1937C54.1541 12.356 54.3141 12.476 54.4764 12.5466C54.6388 12.6172 54.8811 12.709 55.1235 12.789C55.3658 12.869 55.6494 12.9102 55.9729 12.9513L56.6599 13.0337C57.0646 13.0737 57.4282 13.1549 57.7929 13.276C58.1576 13.3972 58.4799 13.5584 58.8047 13.7619C59.0849 13.9671 59.319 14.2288 59.4917 14.5302C59.6541 14.8537 59.7741 15.2172 59.7741 15.6631C59.7741 16.149 59.6529 16.6043 59.4505 16.9572C59.2362 17.335 58.9472 17.6653 58.6011 17.9278C58.2122 18.1855 57.7904 18.3897 57.347 18.5349C56.8585 18.6643 56.3558 18.7323 55.8505 18.7372C55.527 18.7372 55.1635 18.6972 54.8388 18.6549C54.4858 18.6149 54.1517 18.5337 53.787 18.4125C53.451 18.3096 53.126 18.174 52.8164 18.0078C52.513 17.852 52.2281 17.6626 51.967 17.4431L52.8164 16.189C52.9788 16.3513 53.1694 16.4713 53.4235 16.5937C53.6776 16.716 53.9094 16.836 54.1917 16.9172L55.0411 17.1596L55.8905 17.2419C56.1887 17.2374 56.486 17.2099 56.7799 17.1596C57.0623 17.0772 57.3058 16.9972 57.5094 16.8772C57.7129 16.7572 57.8623 16.5949 57.9952 16.4325C58.1282 16.2702 58.1576 16.0796 58.1576 15.8255C58.1576 15.4725 57.9552 15.1384 57.5929 14.976C57.2399 14.7737 56.6517 14.6231 55.9752 14.5313L55.207 14.4102C54.8541 14.3702 54.4776 14.289 54.1552 14.1678C53.8216 14.0561 53.5079 13.8921 53.2258 13.6819C52.9435 13.4784 52.7399 13.196 52.5788 12.8725C52.4176 12.549 52.3364 12.1855 52.3364 11.6996C52.3364 11.2137 52.4188 10.7584 52.6188 10.4055C52.8202 10.0422 53.096 9.72547 53.4282 9.47604C53.7811 9.23369 54.1964 9.03134 54.6399 8.91134C55.0835 8.79134 55.6105 8.70898 56.1364 8.70898C56.8235 8.70898 57.4705 8.79134 58.0376 8.99134C58.6046 9.19134 59.1294 9.43604 59.6141 9.75957L58.8435 11.0596ZM71.987 10.4125H68.8741V18.5302H67.3376V10.4125H64.2235V8.91604H71.9882L71.987 10.4125ZM84.7258 18.5302H83.027L82.0564 16.1031H77.7294L76.7588 18.5302H75.1411L78.9411 8.90663H80.8823L84.7258 18.5302ZM78.2952 14.6078H81.4905L79.8741 10.4713L78.2952 14.6078ZM93.5823 8.90545C94.7152 8.90545 95.5635 9.14781 96.0882 9.63487C96.6529 10.1207 96.9776 10.8078 96.9776 11.6972C96.9776 12.1019 96.8952 12.4655 96.7352 12.8302C96.5909 13.1725 96.3695 13.4769 96.0882 13.7196C95.7954 13.9783 95.4503 14.171 95.0764 14.2843C94.6413 14.4111 94.1942 14.4924 93.7423 14.5266L96.8952 18.5302H94.9541L91.9211 14.4855H91.1117V18.5302H89.5352V8.90663L93.5823 8.90545ZM91.1964 10.4019V13.0725H93.5423C94.1894 13.0725 94.6341 12.9513 94.9576 12.749C95.2399 12.5066 95.4023 12.1843 95.4023 11.6972C95.4023 11.2525 95.2399 10.8878 94.9576 10.6855C94.6341 10.4831 94.1894 10.3619 93.5811 10.3619C93.5811 10.4019 91.1964 10.4019 91.1964 10.4019ZM109.314 18.5196H102.491V8.89604H104.067V17.0137H109.406L109.314 18.5196ZM115.906 18.5196H114.329V8.89604H115.906V18.5196ZM130.223 18.5196H128.808L123.429 11.5631V18.5196H121.851V8.89604H123.266L128.685 15.8525V8.9184H130.261V18.5419L130.223 18.5196ZM140.779 8.73134C141.547 8.73134 142.275 8.85251 142.882 9.13604C143.489 9.41957 144.055 9.7831 144.5 10.309L143.367 11.4419C143.054 11.0811 142.668 10.7915 142.234 10.5925C141.765 10.3765 141.254 10.266 140.738 10.269C140.252 10.269 139.767 10.3513 139.361 10.5113C138.955 10.6713 138.593 10.916 138.269 11.2407C137.946 11.5655 137.743 11.9278 137.54 12.3737C137.378 12.8279 137.296 13.3067 137.298 13.789C137.298 14.2749 137.38 14.8007 137.54 15.2043C137.702 15.649 137.945 16.0137 138.269 16.3372C138.558 16.6593 138.918 16.9091 139.321 17.0666C139.746 17.2335 140.199 17.3158 140.655 17.309C141.545 17.309 142.232 17.1066 142.718 16.6619C143.243 16.2172 143.567 15.6102 143.688 14.8031H141.14V13.3537H145.375V13.7584C145.375 14.4455 145.254 15.0925 145.052 15.7396C144.849 16.3466 144.526 16.9125 144.111 17.3572C143.691 17.8189 143.182 18.1903 142.614 18.449C142.007 18.7313 141.36 18.8537 140.633 18.8537C140.228 18.8537 139.823 18.8137 139.379 18.6913C138.967 18.6037 138.572 18.4537 138.206 18.2466C137.831 18.0414 137.478 17.7973 137.154 17.5184C136.831 17.236 136.547 16.9113 136.345 16.5478C136.102 16.1949 135.94 15.7796 135.819 15.2937C135.689 14.8052 135.621 14.3025 135.616 13.7972C135.616 13.0678 135.738 12.3819 135.969 11.7737C136.201 11.1655 136.576 10.6407 137.021 10.1972C137.466 9.75369 137.992 9.38781 138.639 9.14546C139.306 8.87205 140.021 8.73446 140.742 8.74075L140.779 8.73134ZM55.4976 21.6337C56.0235 21.6337 56.5094 21.6737 56.9541 21.796C57.3568 21.8702 57.7414 22.0211 58.087 22.2407C58.4105 22.4431 58.6517 22.7266 58.8552 23.0502C59.0588 23.3737 59.1376 23.7796 59.1376 24.2619C59.1369 24.51 59.096 24.7564 59.0164 24.9913C58.9341 25.2349 58.8541 25.436 58.6929 25.5984C58.5616 25.777 58.3965 25.9281 58.207 26.0431C58.0035 26.1643 57.8541 26.2855 57.5999 26.3255C57.8423 26.4078 58.0446 26.4878 58.247 26.649C58.4627 26.7764 58.6543 26.9409 58.8129 27.1349C58.9752 27.3372 59.0952 27.5396 59.1658 27.7819C59.2486 28.0295 59.2895 28.2891 59.287 28.5502C59.287 29.036 59.2046 29.4396 59.0446 29.8043C58.8942 30.1551 58.6401 30.4515 58.3164 30.6537C57.9929 30.896 57.6294 31.0584 57.1835 31.1396C56.7388 31.2607 56.2423 31.3019 55.687 31.3019H51.7646V21.6478L55.4976 21.6337ZM53.3541 23.1302V25.7184H55.4576C55.7399 25.7184 55.9835 25.7184 56.2258 25.6784C56.4682 25.6384 56.6705 25.596 56.8729 25.476C57.0752 25.3937 57.1964 25.2337 57.3176 25.0713C57.4388 24.909 57.4799 24.6666 57.4799 24.3843C57.4799 24.1019 57.4399 23.8984 57.3176 23.6972C57.1964 23.5349 57.0752 23.4149 56.8729 23.2925C56.6705 23.2102 56.4682 23.1302 56.2258 23.1302C55.9835 23.0902 55.6999 23.0902 55.4576 23.0902L53.3541 23.1302ZM53.3541 27.1337V29.7619H55.6599L56.5094 29.7219C56.7335 29.6853 56.9513 29.6172 57.1564 29.5196C57.3287 29.4281 57.4697 29.2872 57.5611 29.1149C57.6669 28.9012 57.7224 28.6662 57.7235 28.4278C57.7235 28.1455 57.6835 27.9419 57.5611 27.7407C57.4697 27.5685 57.3287 27.4275 57.1564 27.336C56.9941 27.2537 56.7517 27.1737 56.5094 27.1337C56.267 27.0937 55.9835 27.0937 55.6599 27.0937L53.3541 27.1337ZM73.2105 31.2584H71.5117L70.5411 28.8313H66.1729L65.2023 31.2584H63.5847L67.3846 21.6349H69.3258L73.2105 31.2584ZM66.8223 27.336H70.0176L68.3999 23.2113L66.8223 27.336ZM86.4741 31.2596H85.0588L79.6799 24.3031V31.2596H78.1035V21.6478H79.5188L84.8976 28.589V21.6325H86.4741V31.2596ZM94.9258 27.1749H93.9846V31.2596H92.4082V21.6478H93.9846V25.6925H94.9552L98.5552 21.6478H100.536L96.2094 26.3396L100.86 31.2737H98.7976L94.9258 27.1749Z" fill="#6A737B"/>
</g>
<defs>
<clipPath id="clip0_1995_419">
<rect width="145.882" height="40" fill="white"/>
</clipPath>
</defs>
</svg>
