<svg width="90" height="32" viewBox="0 0 90 32" fill="none" xmlns="http://www.w3.org/2000/svg">
<path d="M41.467 9.37332V18.0133C41.467 18.96 41.7137 19.6867 42.207 20.1933C42.7003 20.6867 43.3937 20.9333 44.287 20.9333C45.1937 20.9333 45.8937 20.6867 46.387 20.1933C46.8803 19.6867 47.127 18.96 47.127 18.0133V9.37332H49.947V17.9933C49.947 19.18 49.687 20.1867 49.167 21.0133C48.6603 21.8267 47.9737 22.44 47.107 22.8533C46.2537 23.2667 45.3003 23.4733 44.247 23.4733C43.207 23.4733 42.2603 23.2667 41.407 22.8533C40.567 22.44 39.9003 21.8267 39.407 21.0133C38.9137 20.1867 38.667 19.18 38.667 17.9933V9.37332H41.467Z" fill="#4C4C4C"/>
<path d="M53.0723 10.9333C52.579 10.9333 52.1656 10.78 51.8323 10.4733C51.5123 10.1533 51.3523 9.75999 51.3523 9.29332C51.3523 8.82665 51.5123 8.43999 51.8323 8.13332C52.1656 7.81332 52.579 7.65332 53.0723 7.65332C53.5656 7.65332 53.9723 7.81332 54.2923 8.13332C54.6256 8.43999 54.7923 8.82665 54.7923 9.29332C54.7923 9.75999 54.6256 10.1533 54.2923 10.4733C53.9723 10.78 53.5656 10.9333 53.0723 10.9333ZM54.4523 12.2533V23.3333H51.6523V12.2533H54.4523Z" fill="#4C4C4C"/>
<path d="M62.3587 12.0933C63.6787 12.0933 64.7454 12.5133 65.5587 13.3533C66.372 14.18 66.7787 15.34 66.7787 16.8333V23.3333H63.9787V17.2133C63.9787 16.3333 63.7587 15.66 63.3187 15.1933C62.8787 14.7133 62.2787 14.4733 61.5187 14.4733C60.7454 14.4733 60.132 14.7133 59.6787 15.1933C59.2387 15.66 59.0187 16.3333 59.0187 17.2133V23.3333H56.2187V12.2533H59.0187V13.6333C59.392 13.1533 59.8654 12.78 60.4387 12.5133C61.0254 12.2333 61.6654 12.0933 62.3587 12.0933Z" fill="#4C4C4C"/>
<path d="M78.7414 17.5533C78.7414 17.9533 78.7147 18.3133 78.6614 18.6333H70.5614C70.628 19.4333 70.908 20.06 71.4014 20.5133C71.8947 20.9667 72.5014 21.1933 73.2214 21.1933C74.2614 21.1933 75.0014 20.7467 75.4414 19.8533H78.4614C78.1414 20.92 77.528 21.8 76.6214 22.4933C75.7147 23.1733 74.6014 23.5133 73.2814 23.5133C72.2147 23.5133 71.2547 23.28 70.4014 22.8133C69.5614 22.3333 68.9014 21.66 68.4214 20.7933C67.9547 19.9267 67.7214 18.9267 67.7214 17.7933C67.7214 16.6467 67.9547 15.64 68.4214 14.7733C68.888 13.9067 69.5414 13.24 70.3814 12.7733C71.2214 12.3067 72.188 12.0733 73.2814 12.0733C74.3347 12.0733 75.2747 12.3 76.1014 12.7533C76.9414 13.2067 77.588 13.8533 78.0414 14.6933C78.508 15.52 78.7414 16.4733 78.7414 17.5533ZM75.8414 16.7533C75.828 16.0333 75.568 15.46 75.0614 15.0333C74.5547 14.5933 73.9347 14.3733 73.2014 14.3733C72.508 14.3733 71.9214 14.5867 71.4414 15.0133C70.9747 15.4267 70.688 16.0067 70.5814 16.7533H75.8414Z" fill="#4C4C4C"/>
<path d="M82.5851 8.53332V23.3333H79.7851V8.53332H82.5851Z" fill="#4C4C4C"/>
<path d="M16.3383 31.3184L25.5222 25.7759C27.0122 24.8767 27.9428 23.2122 27.9508 21.4319L27.9999 10.4168C28.008 8.64441 27.0981 6.99717 25.6257 6.11824L16.475 0.655137C14.9963 -0.227832 13.1517 -0.217579 11.6617 0.681665L2.47783 6.22411C0.987774 7.12335 0.0572099 8.78787 0.0493768 10.568L5.00359e-05 21.5833C-0.00777217 23.3555 0.902056 25.0028 2.37429 25.8818L11.5249 31.3449C13.0039 32.2278 14.8482 32.2176 16.3383 31.3184Z" fill="#F5F5F5"/>
<path d="M6.00049 19.6364L14.3814 16V24L6.00049 19.6364Z" fill="#969696"/>
<path d="M14.3814 8.00098L6.00049 19.6373L14.3814 16.001V8.00098Z" fill="#BBBBBB"/>
<path d="M14.3852 8L22.7661 19.6364L14.3852 16V8Z" fill="#A4A4A4"/>
<path d="M22.7661 19.6364L14.3852 16V24L22.7661 19.6364Z" fill="#8E8E8E"/>
</svg>
