<svg width="57" height="40" viewBox="0 0 57 40" fill="none" xmlns="http://www.w3.org/2000/svg">
<g clip-path="url(#clip0_1995_425)">
<path d="M26.9122 6.25483V23.6849H12.4389L26.9122 6.25483ZM26.9122 0C26.9122 1.91447 26.1498 3.75054 24.7926 5.10427C23.4355 6.45801 21.5948 7.21853 19.6755 7.21853C17.7563 7.21853 15.9156 6.45801 14.5584 5.10427C13.2013 3.75054 12.4389 1.91447 12.4389 0L26.9122 0ZM29.2965 23.6865C29.2965 21.772 30.059 19.936 31.4161 18.5822C32.7732 17.2285 34.6139 16.468 36.5332 16.468C38.4525 16.468 40.2931 17.2285 41.6503 18.5822C43.0074 19.936 43.7699 21.772 43.7699 23.6865H29.2965ZM29.2965 17.4317V0H43.7729L29.2965 17.4301V17.4317ZM37.3909 38.5992C38.1353 38.6158 38.856 38.3383 39.396 37.827L40.39 38.8973C39.7335 39.5707 38.8231 40.071 37.408 40.071C34.9818 40.071 33.4134 38.4649 33.4134 36.2934C33.4036 35.7958 33.4943 35.3012 33.6803 34.8393C33.8662 34.3774 34.1435 33.9575 34.4957 33.6048C34.8478 33.2521 35.2676 32.9738 35.7299 32.7864C36.1922 32.5991 36.6876 32.5065 37.1866 32.5143C39.5957 32.5143 40.9613 34.3429 40.8405 36.8788H35.1459C35.3472 37.932 36.0904 38.6039 37.3863 38.6039L37.3909 38.5992ZM39.1204 35.6695C38.9655 34.6857 38.3772 33.9614 37.2005 33.9614C36.1059 33.9614 35.3426 34.5792 35.1459 35.6695H39.1219H39.1204ZM0 38.5174L4.38163 34.0757H0.103735V32.6826H6.41452V34.1035L2.03289 38.5436H6.47645V39.9382H0V38.5174ZM11.3953 38.5977C12.1396 38.6143 12.8604 38.3367 13.4004 37.8255L14.3944 38.8958C13.7379 39.5691 12.8275 40.0695 11.4124 40.0695C8.98621 40.0695 7.41781 38.4633 7.41781 36.2919C7.40797 35.7942 7.49873 35.2997 7.68467 34.8377C7.87062 34.3758 8.14793 33.956 8.50006 33.6033C8.8522 33.2506 9.27195 32.9723 9.73427 32.7849C10.1966 32.5975 10.692 32.505 11.191 32.5127C13.6001 32.5127 14.9657 34.3413 14.8449 36.8772H9.15343C9.3547 37.9305 10.0979 38.6023 11.3938 38.6023L11.3953 38.5977ZM13.1279 35.668C12.973 34.6842 12.3847 33.9598 11.208 33.9598C10.1134 33.9598 9.35006 34.5776 9.15343 35.668H13.1294H13.1279ZM24.3111 36.2903C24.3111 33.9737 26.0498 32.5158 27.965 32.5158C28.4246 32.5097 28.8799 32.604 29.299 32.7921C29.7181 32.9802 30.0909 33.2575 30.3912 33.6046V29.3236H31.9394V39.9181H30.3912V38.9189C30.0967 39.2803 29.7244 39.5709 29.302 39.7693C28.8797 39.9676 28.4179 40.0687 27.9511 40.0649C26.0931 40.0649 24.3126 38.5977 24.3126 36.2919L24.3111 36.2903ZM30.4779 36.2764C30.4657 35.8235 30.3199 35.3841 30.0587 35.0134C29.7975 34.6426 29.4325 34.3569 29.0094 34.192C28.5863 34.0271 28.1238 33.9903 27.6798 34.0862C27.2359 34.182 26.8301 34.4064 26.5132 34.7311C26.1964 35.0559 25.9826 35.4666 25.8985 35.9119C25.8145 36.3572 25.8639 36.8173 26.0407 37.2348C26.2174 37.6522 26.5136 38.0084 26.8923 38.2588C27.2709 38.5091 27.7151 38.6426 28.1694 38.6425C29.5009 38.6425 30.4763 37.583 30.4763 36.2764H30.4779ZM41.8531 38.3768L43.2558 37.651C43.4413 37.9807 43.7135 38.2537 44.0431 38.4404C44.3727 38.6271 44.7472 38.7205 45.1261 38.7104C46.0025 38.7104 46.4577 38.2625 46.4577 37.7529C46.4577 37.1722 45.6108 37.0425 44.6895 36.8525C43.4509 36.59 42.1612 36.1838 42.1612 34.6903C42.1612 33.5429 43.2558 32.4819 44.9791 32.4973C46.3369 32.4973 47.3479 33.0347 47.9208 33.9027L46.6202 34.6131C46.4406 34.3477 46.196 34.1323 45.9096 33.9875C45.6232 33.8426 45.3046 33.7731 44.9837 33.7853C44.1507 33.7853 43.7265 34.1915 43.7265 34.6564C43.7265 35.1784 44.3985 35.3236 45.4513 35.5568C46.6497 35.8193 48.0059 36.21 48.0059 37.7189C48.0059 38.7197 47.1296 40.0695 45.0549 40.0556C43.5376 40.0556 42.4693 39.4456 41.8546 38.3722L41.8531 38.3768ZM52.2126 36.6934L50.9848 38.0293V39.9135H49.4366V29.3189H50.9848V36.2579L54.2718 32.6595H56.1576L53.3088 35.7637L56.232 39.9151H54.4793L52.2142 36.6934H52.2126ZM19.6322 32.5143C17.7897 32.5143 16.2492 33.7035 16.2492 35.6803V39.9197H17.8284V35.8764C17.8284 34.6873 18.5143 33.9737 19.6864 33.9737C20.8584 33.9737 21.4406 34.6842 21.4406 35.8764V39.9197H23.0105V35.6803C23.0105 33.7066 21.4622 32.5143 19.6275 32.5143" fill="#666666"/>
</g>
<defs>
<clipPath id="clip0_1995_425">
<rect width="56.2025" height="40" fill="white"/>
</clipPath>
</defs>
</svg>
